<svg width="89" height="89" viewBox="0 0 89 89" fill="none" xmlns="http://www.w3.org/2000/svg">
<path d="M44.3605 72.4245H22.2461C22.1049 72.3902 21.9637 72.3546 21.8224 72.3217C18.5906 71.5593 16.2993 68.7908 16.2966 65.574C16.2884 51.456 16.2856 37.3367 16.298 23.2174C16.3007 19.4781 19.4421 16.3367 23.1813 16.3339C37.3003 16.3216 51.4193 16.3284 65.537 16.3298C66.7313 16.3298 67.8447 16.6452 68.8745 17.243C70.827 18.3756 71.9473 20.0938 72.3888 22.2822V66.5132C72.1982 67.3319 71.9706 68.134 71.5455 68.8704C70.4047 70.8408 68.6852 71.9803 66.4776 72.4259H54.8733C54.8596 72.3176 54.8349 72.2092 54.8349 72.1009C54.8322 65.9538 54.8349 59.8067 54.8254 53.6582C54.8254 53.2071 55.0159 53.1042 55.4163 53.1097C56.7656 53.1234 58.1162 53.096 59.4654 53.1248C59.9275 53.1344 60.1483 52.9657 60.3128 52.5461C61.285 50.0684 62.2832 47.6002 63.2704 45.1265C63.5365 44.4587 63.5227 44.4423 62.7741 44.4409C60.3293 44.4409 57.8858 44.4382 55.441 44.4409C55.1119 44.4409 54.8254 44.4478 54.8281 43.9747C54.8418 41.6944 54.824 39.4141 54.8473 37.1338C54.8555 36.3659 55.2915 35.9024 56.0416 35.7008C56.3816 35.6103 56.7244 35.5966 57.0713 35.5966C58.4754 35.5966 59.8809 35.5884 61.285 35.6007C61.6799 35.6035 61.8417 35.4623 61.8403 35.0564C61.8307 32.521 61.8307 29.9856 61.8403 27.4503C61.8417 27.0348 61.6579 26.9114 61.274 26.9196C58.8868 26.9704 56.4968 26.8291 54.1096 27.0033C50.9559 27.2336 48.4439 28.6487 46.5256 31.1334C45.0283 33.0722 44.4263 35.3142 44.4071 37.7302C44.392 39.7007 44.4044 41.6697 44.403 43.6401C44.403 44.4368 44.4003 44.4382 43.5803 44.4382C41.7374 44.4382 39.896 44.4519 38.0531 44.43C37.5526 44.4245 37.3839 44.5863 37.3881 45.0909C37.4086 47.5357 37.41 49.9792 37.3881 52.4241C37.3839 52.9465 37.5375 53.1303 38.0737 53.122C39.9151 53.096 41.758 53.1111 43.6009 53.1124C44.4016 53.1124 44.4044 53.1152 44.4044 53.9297C44.4044 59.8766 44.4044 65.8235 44.403 71.7705C44.403 71.9885 44.377 72.2051 44.3619 72.4232L44.3605 72.4245Z" fill="#333333"/>
</svg>
