<svg width="90" height="89" viewBox="0 0 90 89" fill="none" xmlns="http://www.w3.org/2000/svg">
<path d="M30.1308 15.0369C40.1025 15.0369 50.0787 15.0369 60.0504 15.0369C60.3521 15.0937 60.6493 15.1549 60.951 15.2117C66.433 16.2128 70.4156 19.2249 72.9556 24.1649C73.8211 25.8524 74.2583 27.671 74.5512 29.5333V59.4529C74.2539 61.3765 73.8037 63.2563 72.8769 64.9787C69.8648 70.5832 65.1959 73.8138 58.8176 73.9406C49.6765 74.1242 40.5266 73.9887 31.3811 73.9887C29.8335 73.9887 28.334 73.6871 26.8695 73.2105C20.0803 71.0116 15.525 64.6027 15.5731 57.5119C15.6343 48.8254 15.5862 40.1433 15.5862 31.4568C15.5862 30.6918 15.5906 29.9267 15.713 29.1617C16.618 23.4348 19.6431 19.2468 24.8104 16.6107C26.4848 15.7538 28.2903 15.3298 30.1308 15.0369ZM69.2178 44.4844C69.2178 44.4844 69.2265 44.4844 69.2309 44.4844C69.2309 40.2439 69.2309 36.0077 69.2309 31.7672C69.2309 31.0197 69.209 30.2765 69.1085 29.5333C68.4353 24.6064 63.7925 20.4009 58.8307 20.379C49.777 20.3353 40.7277 20.3615 31.674 20.3572C31.1537 20.3572 30.6422 20.414 30.1308 20.484C25.2039 21.1528 20.9984 25.7955 20.9765 30.7574C20.9328 39.8285 20.9634 48.8997 20.959 57.9709C20.959 58.4693 21.0158 58.9633 21.0814 59.4573C21.7459 64.3842 26.393 68.5897 31.3505 68.6159C40.4042 68.6596 49.4535 68.6334 58.5072 68.6378C59.0274 68.6378 59.5389 68.581 60.0504 68.511C64.9773 67.8421 69.161 63.1994 69.209 58.2376C69.2528 53.6561 69.2178 49.0702 69.2178 44.4887V44.4844Z" fill="#333333"/>
<path d="M45.0907 29.2624C53.4974 29.2624 60.3172 36.0778 60.3216 44.4802C60.3216 52.9131 53.4974 59.7329 45.0601 59.7242C36.6622 59.7154 29.8555 52.8869 29.8599 44.4758C29.8642 36.0735 36.6884 29.2581 45.0907 29.2581V29.2624ZM35.2239 44.4365C35.2064 49.8967 39.565 54.3252 44.9902 54.3558C50.4854 54.3864 54.927 50.0278 54.9532 44.5764C54.9794 39.0812 50.6121 34.6483 45.1607 34.6265C39.6699 34.6046 35.2457 38.9763 35.2283 44.4365H35.2239Z" fill="#333333"/>
<path d="M60.8938 32.5847C58.743 32.576 57.0161 30.8579 57.0205 28.7158C57.0205 26.5956 58.7736 24.8338 60.8982 24.8163C63.0184 24.7988 64.8239 26.613 64.8021 28.7464C64.7846 30.8885 63.049 32.5935 60.8938 32.5891V32.5847Z" fill="#333333"/>
</svg>
