<svg width="41" height="31" viewBox="0 0 41 31" fill="none" xmlns="http://www.w3.org/2000/svg">
<path d="M40.3296 6.06689V27.276C39.9272 29.3603 38.1643 30.9925 35.4905 30.9776C25.1925 30.9236 14.8934 30.9395 4.59534 30.967C1.89633 30.9745 -0.00316593 28.7778 0.015745 26.3651C0.0693259 19.8017 0.0336053 13.2361 0.0357065 6.67166C0.0357065 6.50326 -0.0420383 6.26495 0.0945404 6.18234C0.26789 6.07643 0.420228 6.29249 0.565212 6.38993C5.92015 9.99097 11.2719 13.5952 16.6237 17.1994C18.8962 18.7299 21.4985 18.7299 23.7741 17.1994C26.5656 15.3216 29.355 13.4395 32.1464 11.5627C34.8727 9.72937 37.6012 7.89919 40.3285 6.06795L40.3296 6.06689Z" fill="#333333"/>
<path d="M20.221 0.400605C25.4761 0.400605 30.7323 0.383659 35.9874 0.410137C37.8165 0.419669 39.1371 1.32946 39.9713 2.97641C40.1383 3.30686 40.068 3.48585 39.7696 3.68603C33.9534 7.5921 28.152 11.5215 22.3243 15.4106C20.9438 16.331 19.4456 16.3289 18.063 15.4053C12.249 11.5204 6.45802 7.59951 0.651323 3.70297C0.316179 3.47844 0.263649 3.2772 0.443303 2.93193C1.28589 1.31146 2.60335 0.417551 4.41564 0.409078C9.68443 0.384718 14.9532 0.400605 20.221 0.400605Z" fill="#333333"/>
</svg>
