<svg width="37" height="38" viewBox="0 0 37 38" fill="none" xmlns="http://www.w3.org/2000/svg">
<path d="M29.1806 37.3858C26.5994 37.3324 24.2403 36.4529 21.9658 35.323C16.9045 32.8079 12.6523 29.2264 8.89732 25.024C6.15862 21.9565 3.82111 18.602 2.07876 14.8502C1.05755 12.6472 0.270088 10.3691 0.0529149 7.9308C-0.107892 6.1367 0.188855 4.49614 1.63115 3.21273C2.4816 2.45504 3.22928 1.58051 4.19578 0.954665C5.80883 -0.0900863 7.37711 -0.0450252 8.82272 1.20834C10.4275 2.6019 11.6427 4.31423 12.4533 6.28857C13.0203 7.66878 12.8363 8.98223 11.8615 10.1522C11.394 10.7129 10.89 11.2403 10.3214 11.6892C9.57537 12.2767 9.46595 13.0244 9.70302 13.8739C10.0163 14.9971 10.6281 15.9684 11.3061 16.8913C13.6801 20.1257 16.4271 23.0046 19.5123 25.5531C20.4721 26.3458 21.4917 27.0584 22.7118 27.4223C23.4943 27.6559 24.1226 27.4523 24.683 26.8799C25.2483 26.3007 25.8103 25.7183 26.4701 25.241C27.5493 24.4599 28.7164 24.2913 29.9366 24.777C32.0387 25.6148 33.8109 26.9383 35.1686 28.7557C36.3589 30.3479 36.3274 31.7965 35.1918 33.4287C34.3032 34.7038 33.1544 35.7319 31.9641 36.6999C31.1716 37.3457 30.177 37.4142 29.1856 37.3858H29.1806Z" fill="#333333"/>
</svg>
