<svg width="90" height="89" viewBox="0 0 90 89" fill="none" xmlns="http://www.w3.org/2000/svg">
<path d="M15.8296 72.4974C17.8554 70.2822 19.8773 68.0639 21.9076 65.8518C27.3399 59.9346 32.7715 54.0174 38.2174 48.1112C38.5595 47.7402 38.5751 47.4875 38.2759 47.0812C30.9648 37.1404 23.6687 27.1905 16.3733 17.24C16.2126 17.0208 15.8706 16.7887 15.9876 16.5512C16.1157 16.2911 16.5157 16.4415 16.7921 16.4409C22.0884 16.433 27.3847 16.4421 32.6804 16.4245C33.1909 16.4227 33.4901 16.581 33.7749 16.9702C38.5269 23.4697 43.2952 29.9582 48.0518 36.4546C48.3054 36.8006 48.4524 36.9748 48.8426 36.5478C54.8725 29.9576 60.9186 23.3814 66.957 16.7978C67.1749 16.5603 67.4031 16.4275 67.7524 16.4306C69.1538 16.444 70.556 16.4342 71.9581 16.4385C72.1057 16.4385 72.3067 16.3782 72.384 16.5299C72.4751 16.7101 72.2787 16.8246 72.1714 16.9422C67.8057 21.6985 63.4367 26.4517 59.0684 31.2062C56.4144 34.0944 53.7663 36.9876 51.0979 39.8642C50.8202 40.1639 50.908 40.3509 51.1038 40.6177C55.6951 46.8662 60.2826 53.1178 64.8668 59.3706C68.0736 63.7444 71.2752 68.1218 74.4788 72.4974H56.8371C56.6902 72.2629 56.5581 72.0187 56.3943 71.7946C53.642 68.0359 50.8866 64.2797 48.1311 60.523C45.8718 57.4422 43.608 54.3652 41.3605 51.2771C41.1029 50.9233 40.9618 50.88 40.6529 51.2394C39.97 52.0342 39.2358 52.7901 38.525 53.5642C33.8413 58.6634 29.1537 63.7596 24.4777 68.8655C23.3761 70.0684 22.2224 71.2299 21.2027 72.4974H15.8296ZM63.2488 68.9648C64.3388 68.9648 65.4294 68.969 66.5193 68.9605C66.7034 68.9593 66.9596 69.058 67.0585 68.8783C67.1567 68.6998 66.9277 68.5561 66.8224 68.4148C54.946 52.5002 43.065 36.5898 31.1957 20.6716C30.9252 20.3086 30.6286 20.1904 30.1792 20.1935C28.0962 20.2087 26.0132 20.1983 23.9302 20.2032C23.7019 20.2032 23.38 20.1003 23.2668 20.2781C23.1192 20.5096 23.4275 20.6917 23.564 20.8744C31.4903 31.5004 39.4218 42.1233 47.3526 52.7462C51.2787 58.0056 55.2074 63.2632 59.1231 68.5293C59.363 68.8515 59.6219 68.9806 60.0374 68.9721C61.1079 68.9489 62.179 68.9642 63.2494 68.9648H63.2488Z" fill="#333333"/>
</svg>
