<svg width="34" height="44" viewBox="0 0 34 44" fill="none" xmlns="http://www.w3.org/2000/svg">
<path d="M18.5504 42.0706C22.959 36.6649 33.0137 23.563 33.0137 16.2037C33.0137 7.27826 25.623 0.0368652 16.5137 0.0368652C7.4043 0.0368652 0.0136719 7.27826 0.0136719 16.2037C0.0136719 23.563 10.0684 36.6649 14.477 42.0706C15.534 43.3589 17.4934 43.3589 18.5504 42.0706ZM16.5137 10.8148C17.9724 10.8148 19.3713 11.3825 20.4028 12.3931C21.4342 13.4038 22.0137 14.7745 22.0137 16.2037C22.0137 17.6329 21.4342 19.0036 20.4028 20.0143C19.3713 21.0249 17.9724 21.5926 16.5137 21.5926C15.055 21.5926 13.656 21.0249 12.6246 20.0143C11.5931 19.0036 11.0137 17.6329 11.0137 16.2037C11.0137 14.7745 11.5931 13.4038 12.6246 12.3931C13.656 11.3825 15.055 10.8148 16.5137 10.8148Z" fill="#333333"/>
</svg>
